{
  "accessors": [
    {
      "bufferView": 3,
      "componentType": 5126,
      "count": 47,
      "max": [
        0.9312056303024292,
        2.5230677127838135,
        1.045226812362671
      ],
      "min": [
        -2.103706121444702,
        -0.5324479341506958,
        -1.0452266931533813
      ],
      "type": "VEC3"
    },
    {
      "bufferView": 3,
      "byteOffset": 564,
      "componentType": 5126,
      "count": 47,
      "max": [
        0.9397406578063965,
        0.8407015204429626,
        0.963546633720398
      ],
      "min": [
        -0.7514412999153137,
        -0.7223300337791443,
        -0.9635563492774963
      ],
      "type": "VEC3"
    },
    {
      "bufferView": 2,
      "componentType": 5126,
      "count": 47,
      "max": [
        0.8750001192092896,
        1.0000001192092896
      ],
      "min": [
        0.125,
        0.0
      ],
      "type": "VEC2"
    },
    {
      "bufferView": 1,
      "componentType": 5125,
      "count": 189,
      "type": "SCALAR"
    },
    {
      "bufferView": 3,
      "byteOffset": 1128,
      "componentType": 5126,
      "count": 14,
      "max": [
        1.1411341428756714,
        2.2670445442199707,
        0.6132980585098267
      ],
      "min": [
        0.11057411879301071,
        1.8284767866134644,
        -0.6077427268028259
      ],
      "type": "VEC3"
    },
    {
      "bufferView": 3,
      "byteOffset": 1296,
      "componentType": 5126,
      "count": 14,
      "max": [
        0.9590017199516296,
        0.984260082244873,
        0.963546633720398
      ],
      "min": [
        -0.015162643045186996,
        -0.23826028406620026,
        -0.9635563492774963
      ],
      "type": "VEC3"
    },
    {
      "bufferView": 2,
      "byteOffset": 376,
      "componentType": 5126,
      "count": 14,
      "max": [
        0.7497604489326477,
        0.7067184448242188
      ],
      "min": [
        0.658856213092804,
        0.5432817339897156
      ],
      "type": "VEC2"
    },
    {
      "bufferView": 1,
      "byteOffset": 756,
      "componentType": 5125,
      "count": 54,
      "type": "SCALAR"
    },
    {
      "bufferView": 3,
      "byteOffset": 1464,
      "componentType": 5126,
      "count": 10,
      "max": [
        1.7665809392929077,
        1.9227737188339233,
        0.5496094822883606
      ],
      "min": [
        0.9139108657836914,
        1.3773131370544434,
        -0.5496094226837158
      ],
      "type": "VEC3"
    },
    {
      "bufferView": 3,
      "byteOffset": 1584,
      "componentType": 5126,
      "count": 10,
      "max": [
        0.7236786484718323,
        0.984260082244873,
        0.8289452791213989
      ],
      "min": [
        0.15306547284126282,
        -0.5884467363357544,
        -0.77283775806427
      ],
      "type": "VEC3"
    },
    {
      "bufferView": 2,
      "byteOffset": 488,
      "componentType": 5126,
      "count": 10,
      "max": [
        0.6771277189254761,
        0.6955281496047974
      ],
      "min": [
        0.6541152000427246,
        0.5544720888137817
      ],
      "type": "VEC2"
    },
    {
      "bufferView": 1,
      "byteOffset": 972,
      "componentType": 5125,
      "count": 39,
      "type": "SCALAR"
    },
    {
      "bufferView": 3,
      "byteOffset": 1704,
      "componentType": 5126,
      "count": 22,
      "max": [
        33.35403823852539,
        17.088098526000977,
        31.272871017456055
      ],
      "min": [
        -8.408259391784668,
        -83.69255065917969,
        8.74902629852295
      ],
      "type": "VEC3"
    },
    {
      "bufferView": 3,
      "byteOffset": 1968,
      "componentType": 5126,
      "count": 22,
      "max": [
        0.3578060269355774,
        0.9721447825431824,
        0.2740603983402252
      ],
      "min": [
        -0.2872838079929352,
        -0.9660232663154602,
        -0.2740602493286133
      ],
      "type": "VEC3"
    },
    {
      "bufferView": 2,
      "byteOffset": 568,
      "componentType": 5126,
      "count": 22,
      "max": [
        0.8750001192092896,
        1.0000001192092896
      ],
      "min": [
        0.125,
        0.0
      ],
      "type": "VEC2"
    },
    {
      "bufferView": 1,
      "byteOffset": 1128,
      "componentType": 5125,
      "count": 60,
      "type": "SCALAR"
    },
    {
      "bufferView": 3,
      "byteOffset": 2232,
      "componentType": 5126,
      "count": 22,
      "max": [
        33.35403823852539,
        17.088102340698242,
        -8.494860649108887
      ],
      "min": [
        -8.408259391784668,
        -83.69254302978516,
        -31.018705368041992
      ],
      "type": "VEC3"
    },
    {
      "bufferView": 3,
      "byteOffset": 2496,
      "componentType": 5126,
      "count": 22,
      "max": [
        0.3578060269355774,
        0.9721447825431824,
        0.2740603983402252
      ],
      "min": [
        -0.2872838079929352,
        -0.9660232663154602,
        -0.2740602493286133
      ],
      "type": "VEC3"
    },
    {
      "bufferView": 2,
      "byteOffset": 744,
      "componentType": 5126,
      "count": 22,
      "max": [
        0.8750001192092896,
        1.0000001192092896
      ],
      "min": [
        0.125,
        0.0
      ],
      "type": "VEC2"
    },
    {
      "bufferView": 1,
      "byteOffset": 1368,
      "componentType": 5125,
      "count": 60,
      "type": "SCALAR"
    },
    {
      "bufferView": 5,
      "componentType": 5126,
      "count": 17,
      "max": [
        100.0,
        0.9999935626983643,
        0.9616261720657349,
        0.0,
        0.011763679794967175,
        100.00001525878906,
        0.9290688633918762,
        0.0,
        0.5068941712379456,
        0.9823384284973145,
        99.99999237060547,
        0.0,
        1.6697450876235962,
        1.8057087659835815,
        0.8513238430023193,
        1.0
      ],
      "min": [
        -0.7813087105751038,
        -0.9850671887397766,
        -0.9816681146621704,
        0.0,
        -0.999993622303009,
        -0.7906310558319092,
        -0.507188081741333,
        0.0,
        -0.9999999403953552,
        -0.9363290071487427,
        -0.9513170123100281,
        0.0,
        -0.2716030478477478,
        -1.585390329360962,
        -0.6753191351890564,
        1.0
      ],
      "type": "MAT4"
    },
    {
      "bufferView": 0,
      "componentType": 5123,
      "count": 47,
      "type": "VEC4"
    },
    {
      "bufferView": 4,
      "componentType": 5126,
      "count": 47,
      "max": [
        0.9481664896011353,
        0.4998418986797333,
        0.3164726495742798,
        0.1819576621055603
      ],
      "min": [
        0.29832616448402405,
        0.03875172138214111,
        0.0,
        0.0
      ],
      "type": "VEC4"
    },
    {
      "bufferView": 0,
      "byteOffset": 376,
      "componentType": 5123,
      "count": 14,
      "type": "VEC4"
    },
    {
      "bufferView": 4,
      "byteOffset": 752,
      "componentType": 5126,
      "count": 14,
      "max": [
        0.7940928339958191,
        0.478374719619751,
        0.09047489613294601,
        0.05375143140554428
      ],
      "min": [
        0.521625280380249,
        0.11543227732181549,
        0.0,
        0.0
      ],
      "type": "VEC4"
    },
    {
      "bufferView": 0,
      "byteOffset": 488,
      "componentType": 5123,
      "count": 10,
      "type": "VEC4"
    },
    {
      "bufferView": 4,
      "byteOffset": 976,
      "componentType": 5126,
      "count": 10,
      "max": [
        1.0,
        0.29117316007614136,
        0.10502114146947861,
        0.09998033195734024
      ],
      "min": [
        0.577677845954895,
        0.0,
        0.0,
        0.0
      ],
      "type": "VEC4"
    },
    {
      "bufferView": 0,
      "byteOffset": 568,
      "componentType": 5123,
      "count": 22,
      "type": "VEC4"
    },
    {
      "bufferView": 4,
      "byteOffset": 1136,
      "componentType": 5126,
      "count": 22,
      "max": [
        1.0,
        0.4692448079586029,
        0.0,
        0.0
      ],
      "min": [
        0.5307551622390747,
        0.0,
        0.0,
        0.0
      ],
      "type": "VEC4"
    },
    {
      "bufferView": 0,
      "byteOffset": 744,
      "componentType": 5123,
      "count": 22,
      "type": "VEC4"
    },
    {
      "bufferView": 4,
      "byteOffset": 1488,
      "componentType": 5126,
      "count": 22,
      "max": [
        1.0,
        0.45791342854499817,
        0.0,
        0.0
      ],
      "min": [
        0.5420865416526794,
        0.0,
        0.0,
        0.0
      ],
      "type": "VEC4"
    }
  ],
  "asset": {
    "extras": {
      "author": "jmhq2012.02.13 (https://sketchfab.com/jmhq2012.02.13)",
      "license": "CC-BY-4.0 (http://creativecommons.org/licenses/by/4.0/)",
      "source": "https://sketchfab.com/3d-models/rubber-duckie-with-glasses-low-poly-0586b33a97bb4ad58cdf10180f5385b4",
      "title": "Rubber Duckie with glasses low poly"
    },
    "generator": "Sketchfab-16.15.0",
    "version": "2.0"
  },
  "bufferViews": [
    {
      "buffer": 0,
      "byteLength": 920,
      "byteStride": 8,
      "name": "shortBufferViews",
      "target": 34962
    },
    {
      "buffer": 0,
      "byteLength": 1608,
      "byteOffset": 920,
      "name": "floatBufferViews",
      "target": 34963
    },
    {
      "buffer": 0,
      "byteLength": 920,
      "byteOffset": 2528,
      "byteStride": 8,
      "name": "floatBufferViews",
      "target": 34962
    },
    {
      "buffer": 0,
      "byteLength": 2760,
      "byteOffset": 3448,
      "byteStride": 12,
      "name": "floatBufferViews",
      "target": 34962
    },
    {
      "buffer": 0,
      "byteLength": 1840,
      "byteOffset": 6208,
      "byteStride": 16,
      "name": "floatBufferViews",
      "target": 34962
    },
    {
      "buffer": 0,
      "byteLength": 1088,
      "byteOffset": 8048,
      "name": "floatBufferViews"
    }
  ],
  "buffers": [
    {
      "byteLength": 9136,
      "uri": "scene.bin"
    }
  ],
  "materials": [
    {
      "doubleSided": true,
      "name": "Material.001",
      "pbrMetallicRoughness": {
        "baseColorFactor": [
          0.800576,
          0.688254,
          0.0276864,
          1.0
        ],
        "metallicFactor": 0.0
      }
    },
    {
      "doubleSided": true,
      "name": "Material.003",
      "pbrMetallicRoughness": {
        "baseColorFactor": [
          0.0,
          0.0,
          0.0,
          1.0
        ],
        "metallicFactor": 0.0
      }
    },
    {
      "doubleSided": true,
      "name": "Material.004",
      "pbrMetallicRoughness": {
        "baseColorFactor": [
          0.800016,
          0.241495,
          0.0275926,
          1.0
        ],
        "metallicFactor": 0.0
      }
    }
  ],
  "meshes": [
    {
      "name": "Cube_Material.001_0",
      "primitives": [
        {
          "attributes": {
            "JOINTS_0": 21,
            "NORMAL": 1,
            "POSITION": 0,
            "TEXCOORD_0": 2,
            "WEIGHTS_0": 22
          },
          "indices": 3,
          "material": 0,
          "mode": 4
        }
      ]
    },
    {
      "name": "Cube_Material.003_0",
      "primitives": [
        {
          "attributes": {
            "JOINTS_0": 23,
            "NORMAL": 5,
            "POSITION": 4,
            "TEXCOORD_0": 6,
            "WEIGHTS_0": 24
          },
          "indices": 7,
          "material": 1,
          "mode": 4
        }
      ]
    },
    {
      "name": "Cube_Material.004_0",
      "primitives": [
        {
          "attributes": {
            "JOINTS_0": 25,
            "NORMAL": 9,
            "POSITION": 8,
            "TEXCOORD_0": 10,
            "WEIGHTS_0": 26
          },
          "indices": 11,
          "material": 2,
          "mode": 4
        }
      ]
    },
    {
      "name": "Cube.001_Material.001_0",
      "primitives": [
        {
          "attributes": {
            "JOINTS_0": 27,
            "NORMAL": 13,
            "POSITION": 12,
            "TEXCOORD_0": 14,
            "WEIGHTS_0": 28
          },
          "indices": 15,
          "material": 0,
          "mode": 4
        }
      ]
    },
    {
      "name": "wig_Material.001_0",
      "primitives": [
        {
          "attributes": {
            "JOINTS_0": 29,
            "NORMAL": 17,
            "POSITION": 16,
            "TEXCOORD_0": 18,
            "WEIGHTS_0": 30
          },
          "indices": 19,
          "material": 0,
          "mode": 4
        }
      ]
    }
  ],
  "nodes": [
    {
      "children": [
        1
      ],
      "matrix": [
        1.0,
        0.0,
        0.0,
        0.0,
        0.0,
        2.220446049250313e-16,
        -1.0,
        0.0,
        0.0,
        1.0,
        2.220446049250313e-16,
        0.0,
        0.0,
        0.0,
        0.0,
        1.0
      ],
      "name": "Sketchfab_model"
    },
    {
      "children": [
        2
      ],
      "matrix": [
        0.009999999776482582,
        0.0,
        0.0,
        0.0,
        0.0,
        0.0,
        0.009999999776482582,
        0.0,
        0.0,
        -0.009999999776482582,
        0.0,
        0.0,
        0.0,
        0.0,
        0.0,
        1.0
      ],
      "name": "6a0bb95a77db49b78aea57909b149c88.fbx"
    },
    {
      "children": [
        3
      ],
      "name": "RootNode"
    },
    {
      "children": [
        4
      ],
      "matrix": [
        100.0,
        0.0,
        0.0,
        0.0,
        0.0,
        -1.629206793918314e-05,
        -99.99999999999868,
        0.0,
        0.0,
        99.99999999999868,
        -1.629206793918314e-05,
        0.0,
        0.0,
        -41.522579193115234,
        0.0,
        1.0
      ],
      "name": "Armature"
    },
    {
      "children": [
        5,
        7,
        8,
        9,
        11,
        13,
        6,
        10,
        12
      ],
      "name": "Object_4"
    },
    {
      "children": [
        14,
        27
      ],
      "name": "_rootJoint"
    },
    {
      "matrix": [
        99.99999977669107,
        1.4778593357404125e-08,
        -1.0408340855860843e-15,
        0.0,
        -1.0408341899218513e-15,
        -1.493080072508416e-13,
        -100.00001192093114,
        0.0,
        -1.4778592723161916e-08,
        99.99999548506335,
        -1.4930798271062402e-13,
        0.0,
        6.291112669032373e-06,
        8.228706533941477e-07,
        7.91033905045424e-14,
        1.0
      ],
      "name": "Object_6"
    },
    {
      "mesh": 0,
      "name": "Object_7",
      "skin": 0
    },
    {
      "mesh": 1,
      "name": "Object_8",
      "skin": 0
    },
    {
      "mesh": 2,
      "name": "Object_9",
      "skin": 0
    },
    {
      "matrix": [
        82.10710671500718,
        3.3981435705051526e-08,
        2.5478751053409354e-15,
        0.0,
        9.475134717266046e-16,
        3.576957327414432e-14,
        -30.534303188324643,
        0.0,
        -3.3981435830713416e-08,
        82.10710701863573,
        9.618481098733224e-14,
        0.0,
        -0.18560738825036083,
        10.071621219039528,
        -97.26232714131068,
        1.0
      ],
      "name": "Object_10"
    },
    {
      "mesh": 3,
      "name": "Object_11",
      "skin": 0
    },
    {
      "matrix": [
        82.10710671500718,
        3.3981435705051526e-08,
        2.5478751053409354e-15,
        0.0,
        9.475134717266046e-16,
        3.576957327414432e-14,
        -30.534303188324643,
        0.0,
        -3.3981435830713416e-08,
        82.10710701863573,
        9.618481098733224e-14,
        0.0,
        -0.18560742628383764,
        10.07161946362309,
        96.02696471736637,
        1.0
      ],
      "name": "Object_12"
    },
    {
      "mesh": 4,
      "name": "Object_13",
      "skin": 0
    },
    {
      "children": [
        15,
        21,
        24
      ],
      "name": "Bone_00",
      "rotation": [
        0.4990898072719574,
        0.500908613204956,
        -0.5008975863456726,
        0.4991007149219513
      ],
      "scale": [
        0.9999999403953552,
        0.9999998807907104,
        1.0
      ],
      "translation": [
        -1.0826071500778198,
        0.0,
        0.8069930076599121
      ]
    },
    {
      "children": [
        16
      ],
      "name": "Bone.001_01",
      "rotation": [
        -0.10761509835720062,
        -0.0001833010173868388,
        0.6995972990989685,
        0.7063869833946228
      ],
      "translation": [
        -2.2409949451684952e-08,
        1.3277254104614258,
        5.4539773847346595e-15
      ]
    },
    {
      "children": [
        17
      ],
      "name": "Bone.004_02",
      "rotation": [
        0.07444898039102554,
        -5.539359548834e-08,
        0.018285853788256645,
        0.9970572590827942
      ],
      "scale": [
        0.9999998807907104,
        0.9999999403953552,
        1.0000001192092896
      ],
      "translation": [
        -9.313225746154785e-09,
        0.6814494729042053,
        -1.1175870895385742e-08
      ]
    },
    {
      "children": [
        18
      ],
      "name": "Bone.005_03",
      "rotation": [
        0.0009112380794249475,
        1.862654031015154e-08,
        -0.005881900433450937,
        0.9999822974205017
      ],
      "scale": [
        1.0,
        1.0000001192092896,
        0.9999999403953552
      ],
      "translation": [
        -9.313225746154785e-09,
        0.2658805847167969,
        -1.3877787807814457e-17
      ]
    },
    {
      "children": [
        19
      ],
      "name": "Bone.006_04",
      "rotation": [
        -0.14487284421920776,
        -4.68653560403709e-08,
        0.9350548386573792,
        -0.32354992628097534
      ],
      "scale": [
        1.000000238418579,
        1.0,
        0.9999999403953552
      ],
      "translation": [
        -1.4308346507618808e-08,
        1.145737648010254,
        6.690263898434523e-10
      ]
    },
    {
      "children": [
        20
      ],
      "name": "Bone.007_05",
      "rotation": [
        -0.06128348782658577,
        -4.03964195427875e-09,
        0.39554309844970703,
        0.9164005517959595
      ],
      "scale": [
        1.0,
        0.9999999403953552,
        1.0
      ],
      "translation": [
        -7.82310962677002e-08,
        1.0648399591445923,
        -2.2351741790771484e-08
      ]
    },
    {
      "name": "Bone.007_end_012",
      "rotation": [
        -4.3198680309969317e-19,
        1.010177902103663e-36,
        -2.3384462091323097e-18,
        1.0
      ],
      "translation": [
        4.440892098500626e-16,
        0.8261188268661499,
        -5.551115123125783e-17
      ]
    },
    {
      "children": [
        22
      ],
      "name": "Bone.008_06",
      "rotation": [
        0.6943835616111755,
        9.497771458200077e-09,
        -0.13226255774497986,
        0.7073459029197693
      ],
      "translation": [
        -2.2409949451684952e-08,
        1.3277254104614258,
        5.4539773847346595e-15
      ]
    },
    {
      "children": [
        23
      ],
      "name": "Bone.009_07",
      "rotation": [
        0.6052857041358948,
        0.0688786432147026,
        -0.024656565859913826,
        0.7926392555236816
      ],
      "scale": [
        1.0000001192092896,
        1.0,
        0.9999999403953552
      ],
      "translation": [
        -4.0978193283081055e-08,
        0.8768789172172546,
        2.0489096641540527e-08
      ]
    },
    {
      "name": "Bone.009_end_013",
      "rotation": [
        -2.7755575615628914e-17,
        1.3877787807814457e-17,
        -3.469446951953614e-18,
        1.0
      ],
      "translation": [
        0.0,
        0.8181919455528259,
        0.0
      ]
    },
    {
      "children": [
        25
      ],
      "name": "Bone.010_08",
      "rotation": [
        -0.6715244650840759,
        -0.029788736253976822,
        -0.22004613280296326,
        0.706928014755249
      ],
      "translation": [
        -2.2409949451684952e-08,
        1.3277254104614258,
        5.4539773847346595e-15
      ]
    },
    {
      "children": [
        26
      ],
      "name": "Bone.011_09",
      "rotation": [
        -0.628444492816925,
        -0.0323212705552578,
        -0.13930734992027283,
        0.7645955085754395
      ],
      "translation": [
        2.2351741790771484e-08,
        0.856688916683197,
        -7.450580596923828e-09
      ]
    },
    {
      "name": "Bone.011_end_014",
      "rotation": [
        -1.925929944387236e-34,
        -2.7755575615628914e-17,
        -6.938893903907228e-18,
        1.0
      ],
      "translation": [
        0.0,
        1.4511128664016724,
        -1.1102230246251565e-16
      ]
    },
    {
      "children": [
        28
      ],
      "name": "Bone.002_010",
      "rotation": [
        0.13316459953784943,
        0.13316453993320465,
        0.6944546699523926,
        0.694454550743103
      ],
      "translation": [
        -1.0826071500778198,
        0.0,
        0.8069930076599121
      ]
    },
    {
      "children": [
        29
      ],
      "name": "Bone.003_011",
      "rotation": [
        0.1578732430934906,
        4.499986161476954e-08,
        -1.6116499246265903e-09,
        0.9874593615531921
      ],
      "scale": [
        1.0,
        1.0000001192092896,
        1.0
      ],
      "translation": [
        7.105427357601002e-15,
        0.5298035740852356,
        -2.9802320611338473e-08
      ]
    },
    {
      "name": "Bone.003_end_015",
      "rotation": [
        1.7406191230747175e-17,
        1.3234889800848443e-23,
        1.3234889800848443e-23,
        1.0
      ],
      "translation": [
        -5.293955920339377e-23,
        0.4691701829433441,
        -2.220446049250313e-16
      ]
    }
  ],
  "scene": 0,
  "scenes": [
    {
      "name": "Sketchfab_Scene",
      "nodes": [
        0
      ]
    }
  ],
  "skins": [
    {
      "inverseBindMatrices": 20,
      "joints": [
        5,
        14,
        15,
        16,
        17,
        18,
        19,
        20,
        21,
        22,
        23,
        24,
        25,
        26,
        27,
        28,
        29
      ],
      "skeleton": 5
    }
  ]
}
